<svg xmlns="http://www.w3.org/2000/svg" viewBox="0 700 300 300" width="24" height="24"><path fill="currentColor" d="M0 850Q0 860 7.5 867.5Q15 875 25.0 875.0Q35 875 42.5 867.5Q50 860 50.0 850.0Q50 840 42.5 832.5Q35 825 25.0 825.0Q15 825 7.5 832.5Q0 840 0 850ZM125 850Q125 860 132.5 867.5Q140 875 150.0 875.0Q160 875 167.5 867.5Q175 860 175.0 850.0Q175 840 167.5 832.5Q160 825 150.0 825.0Q140 825 132.5 832.5Q125 840 125 850ZM250 850Q250 860 257.5 867.5Q265 875 275.0 875.0Q285 875 292.5 867.5Q300 860 300.0 850.0Q300 840 292.5 832.5Q285 825 275.0 825.0Q265 825 257.5 832.5Q250 840 250 850Z"/></svg>
