<svg xmlns="http://www.w3.org/2000/svg" viewBox="0 700 300 300" width="24" height="24"><path fill="currentColor" d="M250 700H50Q29 700 14.5 714.5Q0 729 0 750V900Q0 921 14.5 935.5Q29 950 50 950H86L142 997Q145 1000 150.0 1000.0Q155 1000 158 997L214 950H250Q271 950 285.5 935.5Q300 921 300 900V750Q300 729 285.5 714.5Q271 700 250 700ZM275 900Q275 910 267.5 917.5Q260 925 250 925H214Q205 925 198 931L150 971L102 931Q95 925 86 925H50Q40 925 32.5 917.5Q25 910 25 900V750Q25 740 32.5 732.5Q40 725 50 725H250Q260 725 267.5 732.5Q275 740 275 750ZM88 787H150Q155 787 159.0 783.5Q163 780 163.0 775.0Q163 770 159.0 766.0Q155 762 150 762H88Q82 763 78.5 766.5Q75 770 75.0 775.0Q75 780 78.5 784.0Q82 788 88 788ZM213 812H88Q82 813 78.5 816.5Q75 820 75.0 825.0Q75 830 78.5 834.0Q82 838 88 838H213Q218 837 221.5 833.5Q225 830 225.0 825.0Q225 820 221.5 816.0Q218 812 213 812ZM213 862H88Q82 862 78.5 866.0Q75 870 75.0 875.0Q75 880 78.5 883.5Q82 887 88 887H213Q218 887 221.5 883.5Q225 880 225.0 875.0Q225 870 221.5 866.0Q218 862 213 862Z"/></svg>
