<svg xmlns="http://www.w3.org/2000/svg" viewBox="0 700 300 300" width="24" height="24"><path fill="currentColor" d="M150 800Q129 800 114.5 814.5Q100 829 100.0 850.0Q100 871 114.5 885.5Q129 900 150.0 900.0Q171 900 185.5 885.5Q200 871 200.0 850.0Q200 829 185.5 814.5Q171 800 150 800ZM150 875Q140 875 132.5 867.5Q125 860 125.0 850.0Q125 840 132.5 832.5Q140 825 150.0 825.0Q160 825 167.5 832.5Q175 840 175.0 850.0Q175 860 167.5 867.5Q160 875 150 875ZM266 874 261 871Q264 850 261 829L266 826Q275 821 280.0 812.5Q285 804 285.0 794.0Q285 784 280.0 775.0Q275 766 266.0 761.0Q257 756 247.0 756.0Q237 756 229 761L223 764Q207 751 188 744V737Q188 722 177.0 711.0Q166 700 150.0 700.0Q134 700 123.0 711.0Q112 722 113 738V744Q93 751 77 764L71 761Q58 753 43.0 757.5Q28 762 20.0 775.0Q12 788 16.0 803.0Q20 818 34 826L39 829Q36 850 39 871L34 874Q20 882 16.0 897.0Q12 912 20.0 925.0Q28 938 43.0 942.5Q58 947 71 939L77 936Q93 949 112 956V962Q113 978 123.5 989.0Q134 1000 150.0 1000.0Q166 1000 176.5 989.0Q187 978 188 963V956Q207 949 223 936L229 939Q242 947 257.0 942.5Q272 938 280.0 925.0Q288 912 284.0 897.0Q280 882 266 874ZM234 827Q241 850 234 873Q233 878 234.5 881.5Q236 885 240 888L254 895Q258 898 259.5 903.0Q261 908 258.5 912.5Q256 917 251.0 918.5Q246 920 241 917L228 909Q224 907 219.5 907.5Q215 908 212 911Q195 929 172 935Q168 936 165.0 939.5Q162 943 162 947V962Q162 968 158.5 971.5Q155 975 150.0 975.0Q145 975 141.0 971.5Q137 968 137 962V947Q137 943 134.5 939.5Q132 936 128 935Q105 929 88 911Q85 908 80.5 907.5Q76 907 72 909L59 917Q53 921 46.5 917.0Q40 913 40.0 906.0Q40 899 46 895L60 888Q64 885 65.5 881.5Q67 878 66 873Q59 850 66 827Q67 822 65.5 818.5Q64 815 60 812L46 805Q40 801 40.0 794.0Q40 787 46.5 783.0Q53 779 59 783L72 791Q76 793 80.5 792.5Q85 792 88 789Q105 771 128 765Q132 764 135.0 760.5Q138 757 138 753V737Q137 732 141.0 728.5Q145 725 150.0 725.0Q155 725 159.0 728.5Q163 732 163 737V753Q162 757 165.0 760.5Q168 764 172 765Q195 771 212 789Q215 792 219.5 792.5Q224 793 228 791L241 783Q247 779 253.5 783.0Q260 787 260.0 794.0Q260 801 254 805L240 812Q236 815 234.5 818.5Q233 822 234 827Z"/></svg>
