<svg xmlns="http://www.w3.org/2000/svg" viewBox="0 700 300 300" width="24" height="24"><path fill="currentColor" d="M150 700Q109 700 74.5 720.0Q40 740 20.0 774.5Q0 809 0.0 850.0Q0 891 20.0 925.5Q40 960 74.5 980.0Q109 1000 150.0 1000.0Q191 1000 225.5 980.0Q260 960 280.0 925.5Q300 891 300.0 850.0Q300 809 280.0 774.5Q260 740 225.5 720.0Q191 700 150 700ZM150 975Q116 975 87.5 958.0Q59 941 42.0 912.5Q25 884 25.0 850.0Q25 816 42.0 787.5Q59 759 87.5 742.0Q116 725 150.0 725.0Q184 725 212.5 742.0Q241 759 258.0 787.5Q275 816 275.0 850.0Q275 884 258.0 912.5Q241 941 212.5 958.0Q184 975 150 975ZM150 825H138Q132 825 128.5 828.5Q125 832 125.0 837.5Q125 843 128.5 846.5Q132 850 138 850H150V925Q150 930 153.5 933.5Q157 937 162.5 937.0Q168 937 171.5 933.5Q175 930 175 925V850Q175 840 167.5 832.5Q160 825 150 825ZM131 781Q131 789 136.5 794.5Q142 800 150.0 800.0Q158 800 163.5 794.5Q169 789 169.0 781.0Q169 773 163.5 767.5Q158 762 150.0 762.5Q142 763 136.5 768.0Q131 773 131 781Z"/></svg>
