<svg xmlns="http://www.w3.org/2000/svg" viewBox="0 700 300 300" width="24" height="24"><path fill="currentColor" d="M238 805V787Q237 764 225.5 744.0Q214 724 194.0 712.0Q174 700 150.0 700.0Q126 700 106.0 712.0Q86 724 74.0 744.0Q62 764 62 787V805Q45 813 35.0 828.5Q25 844 25 862V937Q25 954 33.5 968.5Q42 983 56.5 991.5Q71 1000 87 1000H213Q229 1000 243.5 991.5Q258 983 266.5 968.5Q275 954 275 938V862Q275 844 265.0 828.5Q255 813 238 805ZM88 787Q88 771 96.0 756.5Q104 742 118.5 733.5Q133 725 150.0 725.0Q167 725 181.5 733.5Q196 742 204.0 756.5Q212 771 212 788V800H88ZM250 937Q250 953 239.0 964.0Q228 975 212 975H88Q72 975 61.0 964.0Q50 953 50 938V862Q50 847 61.0 836.0Q72 825 87 825H213Q228 825 239.0 836.0Q250 847 250 862ZM150 875Q145 875 141.0 878.5Q137 882 137 888V912Q138 918 141.5 921.5Q145 925 150.0 925.0Q155 925 159.0 921.5Q163 918 163 912V887Q163 882 159.0 878.5Q155 875 150 875Z"/></svg>
