<svg xmlns="http://www.w3.org/2000/svg" viewBox="0 700 300 300" width="24" height="24"><path fill="currentColor" d="M232 727 154 701Q150 699 146 701L68 727Q49 733 37.0 749.5Q25 766 25 786V850Q25 892 55 930Q77 958 112 980Q130 992 145 999Q150 1001 155 999Q170 992 188 980Q223 958 245 930Q275 892 275 850V786Q275 766 263.0 749.5Q251 733 232 727ZM250 850Q250 881 229 910Q213 932 185 952Q168 964 150 974Q132 964 115 952Q87 932 71 910Q50 881 50 850V786Q50 774 57.0 764.0Q64 754 76 750L150 726L224 750Q236 754 243.0 764.0Q250 774 250 786ZM191 804 139 856 111 827Q106 822 99.0 823.5Q92 825 90.0 832.0Q88 839 93 844L122 874Q128 882 138 882H139Q149 882 156 875L209 822Q213 818 213.0 812.5Q213 807 209.0 803.5Q205 800 200.0 800.0Q195 800 191 804Z"/></svg>
