<svg xmlns="http://www.w3.org/2000/svg" viewBox="0 700 300 300" width="24" height="24"><path fill="currentColor" d="M282 871 258 785Q251 760 234.0 740.5Q217 721 193.0 710.0Q169 699 142.5 700.0Q116 701 93.0 712.5Q70 724 54.0 744.5Q38 765 32 791L14 874Q11 888 14.0 902.0Q17 916 26.0 927.0Q35 938 48.0 944.0Q61 950 75 950H89Q93 972 110.5 986.0Q128 1000 150.0 1000.0Q172 1000 189.5 986.0Q207 972 211 950H222Q236 950 249.5 943.5Q263 937 271.5 925.5Q280 914 283.0 899.5Q286 885 282 871ZM150 975Q138 975 128.5 968.0Q119 961 115 950H185Q181 961 171.5 968.0Q162 975 150 975ZM252 910Q246 917 238.5 921.0Q231 925 222 925H75Q66 925 58.5 921.5Q51 918 45.5 911.0Q40 904 38.0 896.0Q36 888 38 879L57 797Q63 766 87.5 746.0Q112 726 143.5 725.0Q175 724 200.5 743.0Q226 762 234 792L258 877Q260 886 258.5 894.5Q257 903 252 910Z"/></svg>
