<svg xmlns="http://www.w3.org/2000/svg" viewBox="0 700 300 300" width="24" height="24"><path fill="currentColor" d="M213 800H88V787Q87 766 100.5 749.0Q114 732 134.5 727.0Q155 722 174.5 730.5Q194 739 205 757Q207 762 212.0 763.5Q217 765 221.5 762.5Q226 760 227.5 755.0Q229 750 227 745Q212 719 184.5 707.0Q157 695 128.0 702.5Q99 710 80.5 734.0Q62 758 63 788V805Q45 813 35.0 828.5Q25 844 25 862V937Q25 954 33.5 968.5Q42 983 56.5 991.5Q71 1000 87 1000H213Q229 1000 243.5 991.5Q258 983 266.5 968.5Q275 954 275 938V862Q275 846 266.5 831.5Q258 817 243.5 808.5Q229 800 213 800ZM250 937Q250 953 239.0 964.0Q228 975 212 975H88Q72 975 61.0 964.0Q50 953 50 938V862Q50 847 61.0 836.0Q72 825 87 825H213Q228 825 239.0 836.0Q250 847 250 862ZM150 875Q145 875 141.0 878.5Q137 882 137 888V912Q138 918 141.5 921.5Q145 925 150.0 925.0Q155 925 159.0 921.5Q163 918 163 912V887Q163 882 159.0 878.5Q155 875 150 875Z"/></svg>
