<svg xmlns="http://www.w3.org/2000/svg" viewBox="0 700 300 300" width="24" height="24"><path fill="currentColor" d="M296 979 222 904Q243 879 248.5 847.0Q254 815 243.5 784.5Q233 754 208.5 732.0Q184 710 153.0 703.0Q122 696 90.5 704.5Q59 713 36.0 736.0Q13 759 4.5 790.5Q-4 822 3.0 853.0Q10 884 32.0 908.5Q54 933 84.5 943.5Q115 954 147.0 948.5Q179 943 204 922L279 996Q282 1000 287.5 1000.0Q293 1000 296.5 996.5Q300 993 300.0 987.5Q300 982 296 979ZM125 925Q98 925 75.0 911.5Q52 898 38.5 875.0Q25 852 25.0 825.0Q25 798 38.5 775.0Q52 752 75.0 738.5Q98 725 125.0 725.0Q152 725 175.0 738.5Q198 752 211.5 775.0Q225 798 225.0 825.0Q225 852 211.5 875.0Q198 898 175.0 911.5Q152 925 125 925Z"/></svg>
