<svg xmlns="http://www.w3.org/2000/svg" viewBox="0 700 300 300" width="24" height="24"><path fill="currentColor" d="M143 887Q138 887 134.5 891.0Q131 895 131 900V937Q131 953 120.0 964.0Q109 975 93 975H63Q47 975 36.0 964.0Q25 953 25 938V762Q25 747 36.0 736.0Q47 725 62 725H93Q109 725 120.0 736.0Q131 747 131 763V800Q131 805 134.5 809.0Q138 813 143.5 812.5Q149 812 152.5 808.5Q156 805 156 800V762Q156 746 147.5 731.5Q139 717 124.5 708.5Q110 700 93 700H63Q46 700 31.5 708.5Q17 717 8.5 731.5Q0 746 0 762V937Q0 954 8.5 968.5Q17 983 31.5 991.5Q46 1000 62 1000H93Q110 1000 124.5 991.5Q139 983 147.5 968.5Q156 954 156 937V900Q156 895 152.5 891.5Q149 888 143 888ZM286 823 229 766Q223 761 216.0 763.0Q209 765 207.5 772.0Q206 779 211 784L264 837H75Q70 837 66.5 841.0Q63 845 63.0 850.0Q63 855 66.5 859.0Q70 863 75 863L265 862L211 916Q206 921 207.5 928.0Q209 935 216.0 937.0Q223 939 228 934L286 877Q297 866 297.0 850.0Q297 834 286 823Z"/></svg>
