<svg xmlns="http://www.w3.org/2000/svg" viewBox="0 700 300 300" width="24" height="24"><path fill="currentColor" d="M263 750H224Q219 728 202.0 714.0Q185 700 162 700H138Q115 700 98.0 714.0Q81 728 76 750H38Q32 750 28.5 753.5Q25 757 25.0 762.5Q25 768 28.5 771.5Q32 775 38 775H50V937Q50 954 58.5 968.5Q67 983 81.5 991.5Q96 1000 112 1000H188Q204 1000 218.5 991.5Q233 983 241.5 968.5Q250 954 250 938V775H263Q268 775 271.5 771.5Q275 768 275.0 762.5Q275 757 271.5 753.5Q268 750 263 750ZM138 725H163Q174 725 184.0 732.0Q194 739 198 750H102Q106 739 116.0 732.0Q126 725 138 725ZM225 937Q225 953 214.0 964.0Q203 975 187 975H113Q97 975 86.0 964.0Q75 953 75 938V775H225ZM125 925Q130 925 134.0 921.5Q138 918 138 912V837Q138 832 134.0 828.5Q130 825 125.0 825.0Q120 825 116.5 828.5Q113 832 113 837V912Q112 918 116.0 921.5Q120 925 125 925ZM175 925Q180 925 184.0 921.5Q188 918 188 912V837Q188 832 184.0 828.5Q180 825 175.0 825.0Q170 825 166.0 828.5Q162 832 162 837V912Q163 918 166.5 921.5Q170 925 175 925Z"/></svg>
