<svg xmlns="http://www.w3.org/2000/svg" viewBox="0 700 300 300" width="24" height="24"><path fill="currentColor" d="M238 712H63Q46 713 31.5 721.0Q17 729 8.5 743.5Q0 758 0 775V925Q0 942 8.5 956.5Q17 971 31.5 979.0Q46 987 62 988H238Q254 987 268.5 979.0Q283 971 291.5 956.5Q300 942 300 925V775Q300 758 291.5 743.5Q283 729 268.5 721.0Q254 713 238 712ZM63 737H238Q249 738 258.5 744.0Q268 750 272 761L177 857Q166 868 150.0 868.0Q134 868 123 857L28 761Q32 750 41.5 744.0Q51 738 62 738ZM238 962H63Q47 962 36.0 951.5Q25 941 25 925V794L106 874Q118 886 134.0 890.5Q150 895 166.0 890.5Q182 886 194 874L275 794V925Q275 941 264.0 951.5Q253 962 237 962Z"/></svg>
