<svg xmlns="http://www.w3.org/2000/svg" viewBox="0 700 300 300" width="24" height="24"><path fill="currentColor" d="M250 837V937Q250 954 241.5 968.5Q233 983 218.5 991.5Q204 1000 187 1000H63Q46 1000 31.5 991.5Q17 983 8.5 968.5Q0 954 0 937V812Q0 796 8.5 781.5Q17 767 31.5 758.5Q46 750 63 750H163Q168 750 171.5 753.5Q175 757 175.0 762.5Q175 768 171.5 771.5Q168 775 162 775H63Q47 775 36.0 786.0Q25 797 25 812V937Q25 953 36.0 964.0Q47 975 63 975H188Q203 975 214.0 964.0Q225 953 225 937V837Q225 832 228.5 828.5Q232 825 237.5 825.0Q243 825 246.5 828.5Q250 832 250 838ZM263 700H175Q170 700 166.5 703.5Q163 707 163.0 712.5Q163 718 166.5 721.5Q170 725 175 725H257L104 879Q100 882 100.0 887.5Q100 893 103.5 896.5Q107 900 112.5 900.0Q118 900 121 896L275 743V825Q275 830 278.5 833.5Q282 837 287.5 837.0Q293 837 296.5 833.5Q300 830 300 825V737Q300 722 289.0 711.0Q278 700 262 700Z"/></svg>
