<svg xmlns="http://www.w3.org/2000/svg" viewBox="0 700 300 300" width="24" height="24"><path fill="currentColor" d="M289 711Q282 704 272.5 701.5Q263 699 254 701L54 743Q36 746 22.5 757.0Q9 768 3.5 785.0Q-2 802 2.0 819.5Q6 837 18 849L40 871Q43 874 43 879V919Q44 928 47 935V936Q53 947 64 952L65 953Q72 956 81 956H121Q126 956 129 960L151 982Q160 990 171.0 995.0Q182 1000 193.5 1000.0Q205 1000 215 997Q232 991 243.0 977.5Q254 964 257 947L299 746Q301 737 298.5 727.5Q296 718 289 711ZM58 853 36 832Q28 824 25.5 813.5Q23 803 26.5 793.0Q30 783 38.5 776.0Q47 769 58 768L256 726L68 914V879Q68 864 57 853ZM232 943Q231 953 224.0 961.5Q217 970 207.0 973.0Q197 976 186.5 974.0Q176 972 169 964L147 942Q136 931 121 932H86L274 744Z"/></svg>
