<svg xmlns="http://www.w3.org/2000/svg" viewBox="0 700 300 300" width="24" height="24"><path fill="currentColor" d="M150 850Q170 850 187.5 840.0Q205 830 215.0 812.5Q225 795 225.0 775.0Q225 755 215.0 737.5Q205 720 187.5 710.0Q170 700 150.0 700.0Q130 700 112.5 710.0Q95 720 85.0 737.5Q75 755 75.0 775.0Q75 795 85.0 812.5Q95 830 112.5 840.0Q130 850 150 850ZM150 725Q171 725 185.5 739.5Q200 754 200.0 775.0Q200 796 185.5 810.5Q171 825 150.0 825.0Q129 825 114.5 810.5Q100 796 100.0 775.0Q100 754 114.5 739.5Q129 725 150 725ZM150 875Q119 875 93.5 890.0Q68 905 53.0 931.0Q38 957 37 988Q38 993 41.5 996.5Q45 1000 50.0 1000.0Q55 1000 58.5 996.5Q62 993 62 988Q63 964 74.5 944.0Q86 924 106.0 912.0Q126 900 150.0 900.0Q174 900 194.0 912.0Q214 924 226.0 944.0Q238 964 238 988Q238 993 241.5 996.5Q245 1000 250.0 1000.0Q255 1000 259.0 996.5Q263 993 263 988Q262 957 247.0 931.0Q232 905 206.5 890.0Q181 875 150 875Z"/></svg>
