<svg xmlns="http://www.w3.org/2000/svg" viewBox="0 700 300 300" width="24" height="24"><path fill="currentColor" d="M233 712 81 864Q72 873 67.0 884.5Q62 896 63 908V925Q63 930 66.5 933.5Q70 937 75 937H92Q104 938 115.5 933.0Q127 928 136 919L288 767Q300 755 300.0 739.0Q300 723 288.5 712.0Q277 701 261.0 701.0Q245 701 233 712ZM271 749 118 902Q107 912 92 912H88V908Q88 893 98 882L251 729Q255 725 261.0 725.0Q267 725 271.0 729.0Q275 733 275.0 739.0Q275 745 271 749ZM288 812Q282 812 278.5 816.0Q275 820 275 825V887H225Q209 887 198.5 898.0Q188 909 188 925V975H63Q47 975 36.0 964.0Q25 953 25 938V762Q25 747 36.0 736.0Q47 725 62 725H176Q181 725 184.5 721.5Q188 718 188.0 712.5Q188 707 184.5 703.5Q181 700 176 700H63Q46 700 31.5 708.5Q17 717 8.5 731.5Q0 746 0 762V937Q0 954 8.5 968.5Q17 983 31.5 991.5Q46 1000 62 1000H204Q217 1000 228.5 995.5Q240 991 248 982L282 948Q291 940 295.5 928.5Q300 917 300 904V825Q300 820 296.5 816.0Q293 812 288 812ZM231 964Q223 972 212 974V925Q213 920 216.5 916.5Q220 913 225 913H274Q272 923 264 931Z"/></svg>
