<svg xmlns="http://www.w3.org/2000/svg" viewBox="0 700 300 300" width="24" height="24"><path fill="currentColor" d="M150 700Q109 700 74.5 720.0Q40 740 20.0 774.5Q0 809 0.0 850.0Q0 891 20.0 925.5Q40 960 74.5 980.0Q109 1000 150.0 1000.0Q191 1000 225.5 980.0Q260 960 280.0 925.5Q300 891 300.0 850.0Q300 809 280.0 774.5Q260 740 225.5 720.0Q191 700 150 700ZM150 725Q172 725 192.0 732.5Q212 740 229 753L53 929Q30 901 26.0 865.0Q22 829 37.5 796.5Q53 764 83.5 744.5Q114 725 150 725ZM150 975Q128 975 108.0 967.5Q88 960 71 947L247 771Q270 799 274.0 835.0Q278 871 262.5 903.5Q247 936 216.5 955.5Q186 975 150 975Z"/></svg>
